<svg xmlns="http://www.w3.org/2000/svg" viewBox="0 0 348 348" fill="none"><path d="M5.08 5.776h336.91v337.67H5.08z" stroke-width="2" stroke="#000"/><path d="M282.734 40.554c0-8.376 6.966-15.165 15.56-15.165 4.126 0 8.084 1.594 11 4.44 2.92 2.842 4.56 6.7 4.56 10.722 0 8.376-6.967 15.165-15.56 15.165-8.594 0-15.56-6.79-15.56-15.166z" stroke-width="2" stroke="#000"/><path d="M63.89686 144.5563c0 9.35513-7.58383 16.93896-16.93895 16.93896-9.3551 0-16.9389-7.58383-16.9389-16.93895 0-9.3551 7.5838-16.9389 16.93895-16.9389 9.35513 0 16.93896 7.58384 16.93896 16.93895zm50.81684 0c0 9.35513-7.58383 16.93896-16.93895 16.93896-9.35513 0-16.93895-7.58383-16.93895-16.93895 0-9.3551 7.58382-16.9389 16.93895-16.9389 9.35512 0 16.93894 7.58384 16.93894 16.93895zm50.81682 0c0 9.35513-7.58382 16.93896-16.93894 16.93896s-16.93895-7.58383-16.93895-16.93895c0-9.3551 7.58383-16.9389 16.93895-16.9389s16.93894 7.58384 16.93894 16.93895zm50.81684 0c0 9.35513-7.58382 16.93896-16.93894 16.93896s-16.93895-7.58383-16.93895-16.93895c0-9.3551 7.58383-16.9389 16.93895-16.9389s16.93894 7.58384 16.93894 16.93895zm50.81684 0c0 9.35513-7.58383 16.93896-16.93895 16.93896s-16.93895-7.58383-16.93895-16.93895c0-9.3551 7.58383-16.9389 16.93895-16.9389s16.93894 7.58384 16.93894 16.93895zm50.81683 0c0 9.35513-7.58382 16.93896-16.93894 16.93896-9.35517 0-16.939-7.58383-16.939-16.93895 0-9.3551 7.58383-16.9389 16.93895-16.9389 9.3551 0 16.93893 7.58384 16.93893 16.93895z" overflow="visible" stroke-width="5.00002" color="#000" stroke="#000" stroke-linecap="round" stroke-linejoin="round"/><path d="M206.37256 249.93064a32.37256 32.37256 0 1 1-64.74512 0 32.37256 32.37256 0 1 1 64.74512 0z" color="#000" stroke="#000" stroke-width="5" stroke-linecap="round" stroke-linejoin="round" overflow="visible"/></svg>